<svg xmlns="http://www.w3.org/2000/svg" width="1280" height="640" viewBox="0 0 1280 640"><rect width="100%" height="100%" fill="white"/><style>text{font-family:Arial,sans-serif;fill:#253247}.title{font-size:24px;font-weight:700}.subtitle{font-size:14px}.label{font-size:13px}.tick{font-size:12px}.legend{font-size:12px}.grid{stroke:#d7dee8;stroke-width:1}.axis{stroke:#253247;stroke-width:1.5}</style><text class="title" x="70" y="40">Posição da primeira evidência relevante</text><text class="subtitle" x="70" y="62">Quantidade de consultas cuja primeira evidência relevante aparece em cada posição</text><rect x="80" y="80" width="13" height="13" fill="#31688e" rx="2"/><text class="legend" x="99" y="91">Recursive Text / BM25</text><rect x="365" y="80" width="13" height="13" fill="#7e4fa3" rx="2"/><text class="legend" x="384" y="91">Recursive Text / DENSE</text><rect x="650" y="80" width="13" height="13" fill="#24907b" rx="2"/><text class="legend" x="669" y="91">Recursive Text / HYBRID</text><line class="grid" x1="80" y1="535.00" x2="1245" y2="535.00"/><text class="tick" x="70" y="539.00" text-anchor="end">0</text><line class="grid" x1="80" y1="453.00" x2="1245" y2="453.00"/><text class="tick" x="70" y="457.00" text-anchor="end">7</text><line class="grid" x1="80" y1="371.00" x2="1245" y2="371.00"/><text class="tick" x="70" y="375.00" text-anchor="end">14</text><line class="grid" x1="80" y1="289.00" x2="1245" y2="289.00"/><text class="tick" x="70" y="293.00" text-anchor="end">22</text><line class="grid" x1="80" y1="207.00" x2="1245" y2="207.00"/><text class="tick" x="70" y="211.00" text-anchor="end">29</text><line class="grid" x1="80" y1="125.00" x2="1245" y2="125.00"/><text class="tick" x="70" y="129.00" text-anchor="end">36</text><line class="axis" x1="80" y1="125" x2="80" y2="535"/><line class="axis" x1="80" y1="535" x2="1245" y2="535"/><rect x="86.95" y="216.11" width="26.00" height="318.89" fill="#31688e"/><text class="tick" x="99.95" y="210.11" text-anchor="middle">28</text><rect x="119.95" y="204.72" width="26.00" height="330.28" fill="#7e4fa3"/><text class="tick" x="132.95" y="198.72" text-anchor="middle">29</text><rect x="152.95" y="125.00" width="26.00" height="410.00" fill="#24907b"/><text class="tick" x="165.95" y="119.00" text-anchor="middle">36</text><text class="tick" x="132.95" y="562" text-anchor="middle">posição 1</text><rect x="192.86" y="398.33" width="26.00" height="136.67" fill="#31688e"/><text class="tick" x="205.86" y="392.33" text-anchor="middle">12</text><rect x="225.86" y="466.67" width="26.00" height="68.33" fill="#7e4fa3"/><text class="tick" x="238.86" y="460.67" text-anchor="middle">6</text><rect x="258.86" y="466.67" width="26.00" height="68.33" fill="#24907b"/><text class="tick" x="271.86" y="460.67" text-anchor="middle">6</text><text class="tick" x="238.86" y="562" text-anchor="middle">posição 2</text><rect x="298.77" y="500.83" width="26.00" height="34.17" fill="#31688e"/><text class="tick" x="311.77" y="494.83" text-anchor="middle">3</text><rect x="331.77" y="478.06" width="26.00" height="56.94" fill="#7e4fa3"/><text class="tick" x="344.77" y="472.06" text-anchor="middle">5</text><rect x="364.77" y="523.61" width="26.00" height="11.39" fill="#24907b"/><text class="tick" x="377.77" y="517.61" text-anchor="middle">1</text><text class="tick" x="344.77" y="562" text-anchor="middle">posição 3</text><rect x="404.68" y="512.22" width="26.00" height="22.78" fill="#31688e"/><text class="tick" x="417.68" y="506.22" text-anchor="middle">2</text><rect x="437.68" y="512.22" width="26.00" height="22.78" fill="#7e4fa3"/><text class="tick" x="450.68" y="506.22" text-anchor="middle">2</text><rect x="470.68" y="478.06" width="26.00" height="56.94" fill="#24907b"/><text class="tick" x="483.68" y="472.06" text-anchor="middle">5</text><text class="tick" x="450.68" y="562" text-anchor="middle">posição 4</text><rect x="510.59" y="523.61" width="26.00" height="11.39" fill="#31688e"/><text class="tick" x="523.59" y="517.61" text-anchor="middle">1</text><rect x="543.59" y="512.22" width="26.00" height="22.78" fill="#7e4fa3"/><text class="tick" x="556.59" y="506.22" text-anchor="middle">2</text><rect x="576.59" y="535.00" width="26.00" height="0.00" fill="#24907b"/><text class="tick" x="556.59" y="562" text-anchor="middle">posição 5</text><rect x="616.50" y="535.00" width="26.00" height="0.00" fill="#31688e"/><rect x="649.50" y="512.22" width="26.00" height="22.78" fill="#7e4fa3"/><text class="tick" x="662.50" y="506.22" text-anchor="middle">2</text><rect x="682.50" y="523.61" width="26.00" height="11.39" fill="#24907b"/><text class="tick" x="695.50" y="517.61" text-anchor="middle">1</text><text class="tick" x="662.50" y="562" text-anchor="middle">posição 6</text><rect x="722.41" y="523.61" width="26.00" height="11.39" fill="#31688e"/><text class="tick" x="735.41" y="517.61" text-anchor="middle">1</text><rect x="755.41" y="535.00" width="26.00" height="0.00" fill="#7e4fa3"/><rect x="788.41" y="535.00" width="26.00" height="0.00" fill="#24907b"/><text class="tick" x="768.41" y="562" text-anchor="middle">posição 7</text><rect x="828.32" y="535.00" width="26.00" height="0.00" fill="#31688e"/><rect x="861.32" y="523.61" width="26.00" height="11.39" fill="#7e4fa3"/><text class="tick" x="874.32" y="517.61" text-anchor="middle">1</text><rect x="894.32" y="535.00" width="26.00" height="0.00" fill="#24907b"/><text class="tick" x="874.32" y="562" text-anchor="middle">posição 8</text><rect x="934.23" y="523.61" width="26.00" height="11.39" fill="#31688e"/><text class="tick" x="947.23" y="517.61" text-anchor="middle">1</text><rect x="967.23" y="523.61" width="26.00" height="11.39" fill="#7e4fa3"/><text class="tick" x="980.23" y="517.61" text-anchor="middle">1</text><rect x="1000.23" y="535.00" width="26.00" height="0.00" fill="#24907b"/><text class="tick" x="980.23" y="562" text-anchor="middle">posição 9</text><rect x="1040.14" y="535.00" width="26.00" height="0.00" fill="#31688e"/><rect x="1073.14" y="535.00" width="26.00" height="0.00" fill="#7e4fa3"/><rect x="1106.14" y="535.00" width="26.00" height="0.00" fill="#24907b"/><text class="tick" x="1086.14" y="562" text-anchor="middle">posição 10</text><rect x="1146.05" y="512.22" width="26.00" height="22.78" fill="#31688e"/><text class="tick" x="1159.05" y="506.22" text-anchor="middle">2</text><rect x="1179.05" y="512.22" width="26.00" height="22.78" fill="#7e4fa3"/><text class="tick" x="1192.05" y="506.22" text-anchor="middle">2</text><rect x="1212.05" y="523.61" width="26.00" height="11.39" fill="#24907b"/><text class="tick" x="1225.05" y="517.61" text-anchor="middle">1</text><text class="tick" x="1192.05" y="562" text-anchor="middle">não encontrado</text></svg>