<svg xmlns="http://www.w3.org/2000/svg" width="900" height="570" viewBox="0 0 900 570"><rect width="100%" height="100%" fill="white"/><style>text{font-family:Arial,sans-serif;fill:#253247}.title{font-size:24px;font-weight:700}.subtitle{font-size:14px}.label{font-size:13px}.tick{font-size:12px}.legend{font-size:12px}.grid{stroke:#d7dee8;stroke-width:1}.axis{stroke:#253247;stroke-width:1.5}</style><text class="title" x="70" y="40">Latência de recuperação</text><text class="subtitle" x="70" y="62">Mediana e percentil 95 por consulta; menor é melhor</text><rect x="85" y="69" width="13" height="13" fill="#31688e" rx="2"/><text class="legend" x="104" y="80">Mediana</text><rect x="185" y="69" width="13" height="13" fill="#7e4fa3" rx="2"/><text class="legend" x="204" y="80">P95</text><line class="grid" x1="85" y1="450.00" x2="865" y2="450.00"/><text class="tick" x="75" y="454.00" text-anchor="end">0 ms</text><line class="grid" x1="85" y1="378.00" x2="865" y2="378.00"/><text class="tick" x="75" y="382.00" text-anchor="end">57 ms</text><line class="grid" x1="85" y1="306.00" x2="865" y2="306.00"/><text class="tick" x="75" y="310.00" text-anchor="end">115 ms</text><line class="grid" x1="85" y1="234.00" x2="865" y2="234.00"/><text class="tick" x="75" y="238.00" text-anchor="end">172 ms</text><line class="grid" x1="85" y1="162.00" x2="865" y2="162.00"/><text class="tick" x="75" y="166.00" text-anchor="end">229 ms</text><line class="grid" x1="85" y1="90.00" x2="865" y2="90.00"/><text class="tick" x="75" y="94.00" text-anchor="end">287 ms</text><line class="axis" x1="85" y1="90" x2="85" y2="450"/><line class="axis" x1="85" y1="450" x2="865" y2="450"/><rect x="155.00" y="179.15" width="55.00" height="270.85" fill="#31688e"/><text class="tick" x="182.50" y="173.15" text-anchor="middle">216</text><rect x="220.00" y="153.09" width="55.00" height="296.91" fill="#7e4fa3"/><text class="tick" x="247.50" y="147.09" text-anchor="middle">237</text><text class="tick" x="215.00" y="478" text-anchor="middle"><tspan x="215.00" dy="0">Recursive Text</tspan><tspan x="215.00" dy="18">BM25</tspan></text><rect x="415.00" y="177.97" width="55.00" height="272.03" fill="#31688e"/><text class="tick" x="442.50" y="171.97" text-anchor="middle">217</text><rect x="480.00" y="140.06" width="55.00" height="309.94" fill="#7e4fa3"/><text class="tick" x="507.50" y="134.06" text-anchor="middle">247</text><text class="tick" x="475.00" y="478" text-anchor="middle"><tspan x="475.00" dy="0">Recursive Text</tspan><tspan x="475.00" dy="18">DENSE</tspan></text><rect x="675.00" y="179.25" width="55.00" height="270.75" fill="#31688e"/><text class="tick" x="702.50" y="173.25" text-anchor="middle">216</text><rect x="740.00" y="136.96" width="55.00" height="313.04" fill="#7e4fa3"/><text class="tick" x="767.50" y="130.96" text-anchor="middle">249</text><text class="tick" x="735.00" y="478" text-anchor="middle"><tspan x="735.00" dy="0">Recursive Text</tspan><tspan x="735.00" dy="18">HYBRID</tspan></text></svg>