<svg xmlns="http://www.w3.org/2000/svg" width="960" height="430" viewBox="0 0 960 430"><rect width="100%" height="100%" fill="white"/><style>text{font-family:Arial,sans-serif;fill:#253247}.title{font-size:24px;font-weight:700}.subtitle{font-size:14px}.label{font-size:15px;font-weight:700}.tick{font-size:13px}.grid{stroke:#d7dee8;stroke-width:1}.axis{stroke:#253247;stroke-width:1.5}.ci{stroke:#1f2937;stroke-width:2}</style><text class="title" x="85" y="42">PDF-IR: nDCG@k</text><text class="subtitle" x="85" y="65">Média por consulta e intervalo de confiança de 95% por bootstrap</text><line class="grid" x1="85" y1="305.00" x2="925" y2="305.00"/><text class="tick" x="73" y="309.00" text-anchor="end">0.0</text><line class="grid" x1="85" y1="261.60" x2="925" y2="261.60"/><text class="tick" x="73" y="265.60" text-anchor="end">0.2</text><line class="grid" x1="85" y1="218.20" x2="925" y2="218.20"/><text class="tick" x="73" y="222.20" text-anchor="end">0.4</text><line class="grid" x1="85" y1="174.80" x2="925" y2="174.80"/><text class="tick" x="73" y="178.80" text-anchor="end">0.6</text><line class="grid" x1="85" y1="131.40" x2="925" y2="131.40"/><text class="tick" x="73" y="135.40" text-anchor="end">0.8</text><line class="grid" x1="85" y1="88.00" x2="925" y2="88.00"/><text class="tick" x="73" y="92.00" text-anchor="end">1.0</text><line class="axis" x1="85" y1="88" x2="85" y2="305"/><line class="axis" x1="85" y1="305" x2="925" y2="305"/><rect x="170.00" y="136.69" width="110.00" height="168.31" fill="#31688e"/><line class="ci" x1="225.00" y1="120.67" x2="225.00" y2="153.57"/><line class="ci" x1="218.00" y1="120.67" x2="232.00" y2="120.67"/><line class="ci" x1="218.00" y1="153.57" x2="232.00" y2="153.57"/><text class="label" x="225.00" y="110.67" text-anchor="middle">0.776</text><text class="tick" x="225.00" y="335" text-anchor="middle"><tspan x="225.00" dy="0">Recursive Text</tspan><tspan x="225.00" dy="18">BM25</tspan></text><rect x="450.00" y="139.54" width="110.00" height="165.46" fill="#7e4fa3"/><line class="ci" x1="505.00" y1="122.33" x2="505.00" y2="157.85"/><line class="ci" x1="498.00" y1="122.33" x2="512.00" y2="122.33"/><line class="ci" x1="498.00" y1="157.85" x2="512.00" y2="157.85"/><text class="label" x="505.00" y="112.33" text-anchor="middle">0.762</text><text class="tick" x="505.00" y="335" text-anchor="middle"><tspan x="505.00" dy="0">Recursive Text</tspan><tspan x="505.00" dy="18">DENSE</tspan></text><rect x="730.00" y="120.99" width="110.00" height="184.01" fill="#24907b"/><line class="ci" x1="785.00" y1="106.42" x2="785.00" y2="137.48"/><line class="ci" x1="778.00" y1="106.42" x2="792.00" y2="106.42"/><line class="ci" x1="778.00" y1="137.48" x2="792.00" y2="137.48"/><text class="label" x="785.00" y="104.00" text-anchor="middle">0.848</text><text class="tick" x="785.00" y="335" text-anchor="middle"><tspan x="785.00" dy="0">Recursive Text</tspan><tspan x="785.00" dy="18">HYBRID</tspan></text></svg>