<svg xmlns="http://www.w3.org/2000/svg" width="1600" height="900" viewBox="0 0 1600 900"><rect width="100%" height="100%" fill="#FFFFFF"/><style>text{font-family:Arial,Helvetica,sans-serif;fill:#172033}.title{font-size:36px;font-weight:700}.subtitle{font-size:20px;fill:#526175}.caption{font-size:17px;fill:#526175}.tick{font-size:18px;fill:#42526A}.label{font-size:20px;font-weight:700}.value{font-size:19px;font-weight:700}.grid{stroke:#DCE3EC;stroke-width:1.5}.axis{stroke:#718096;stroke-width:1.5}.ci{stroke:#172033;stroke-width:2.5}</style><text class="title" x="100" y="72">Efeito do tamanho do corpus na recuperação</text><text class="subtitle" x="100" y="106">Mesmo protocolo: 50 consultas, segmentação recursiva e top-10 • 49 vs. 581 páginas</text><line class="grid" x1="175" y1="555.0" x2="1470" y2="555.0"/><text class="tick" x="159" y="561.0" text-anchor="end">0.0</text><line class="grid" x1="175" y1="486.0" x2="1470" y2="486.0"/><text class="tick" x="159" y="492.0" text-anchor="end">0.2</text><line class="grid" x1="175" y1="417.0" x2="1470" y2="417.0"/><text class="tick" x="159" y="423.0" text-anchor="end">0.4</text><line class="grid" x1="175" y1="348.0" x2="1470" y2="348.0"/><text class="tick" x="159" y="354.0" text-anchor="end">0.6</text><line class="grid" x1="175" y1="279.0" x2="1470" y2="279.0"/><text class="tick" x="159" y="285.0" text-anchor="end">0.8</text><line class="grid" x1="175" y1="210.0" x2="1470" y2="210.0"/><text class="tick" x="159" y="216.0" text-anchor="end">1.0</text><line class="axis" x1="175" y1="210" x2="175" y2="555"/><line class="axis" x1="175" y1="555" x2="1470" y2="555"/><text class="label" x="336.9" y="184" text-anchor="middle">MRR@10</text><line x1="219.0" y1="306.9" x2="454.8" y2="356.2" stroke="#356A9A" stroke-width="5" opacity="0.74"/><circle cx="219.0" cy="306.9" r="10" fill="#356A9A"/><circle cx="454.8" cy="356.2" r="10" fill="#356A9A"/><line x1="219.0" y1="312.6" x2="454.8" y2="310.7" stroke="#8B5DA8" stroke-width="5" opacity="0.74"/><circle cx="219.0" cy="312.6" r="10" fill="#8B5DA8"/><circle cx="454.8" cy="310.7" r="10" fill="#8B5DA8"/><line x1="219.0" y1="273.8" x2="454.8" y2="310.3" stroke="#23846B" stroke-width="5" opacity="0.74"/><circle cx="219.0" cy="273.8" r="10" fill="#23846B"/><circle cx="454.8" cy="310.3" r="10" fill="#23846B"/><text class="tick" x="219.0" y="590" text-anchor="middle">49 páginas</text><text class="tick" x="454.8" y="590" text-anchor="middle">581 páginas</text><line x1="498.75" y1="210" x2="498.75" y2="607" stroke="#C7D0DC" stroke-width="1.5"/><text class="label" x="660.6" y="184" text-anchor="middle">MAP@10</text><line x1="542.8" y1="308.5" x2="778.5" y2="368.8" stroke="#356A9A" stroke-width="5" opacity="0.74"/><circle cx="542.8" cy="308.5" r="10" fill="#356A9A"/><circle cx="778.5" cy="368.8" r="10" fill="#356A9A"/><line x1="542.8" y1="314.6" x2="778.5" y2="326.0" stroke="#8B5DA8" stroke-width="5" opacity="0.74"/><circle cx="542.8" cy="314.6" r="10" fill="#8B5DA8"/><circle cx="778.5" cy="326.0" r="10" fill="#8B5DA8"/><line x1="542.8" y1="277.9" x2="778.5" y2="323.2" stroke="#23846B" stroke-width="5" opacity="0.74"/><circle cx="542.8" cy="277.9" r="10" fill="#23846B"/><circle cx="778.5" cy="323.2" r="10" fill="#23846B"/><text class="tick" x="542.8" y="590" text-anchor="middle">49 páginas</text><text class="tick" x="778.5" y="590" text-anchor="middle">581 páginas</text><line x1="822.5" y1="210" x2="822.5" y2="607" stroke="#C7D0DC" stroke-width="1.5"/><text class="label" x="984.4" y="184" text-anchor="middle">nDCG@10</text><line x1="866.5" y1="287.4" x2="1102.2" y2="340.7" stroke="#356A9A" stroke-width="5" opacity="0.74"/><circle cx="866.5" cy="287.4" r="10" fill="#356A9A"/><circle cx="1102.2" cy="340.7" r="10" fill="#356A9A"/><line x1="866.5" y1="291.9" x2="1102.2" y2="297.9" stroke="#8B5DA8" stroke-width="5" opacity="0.74"/><circle cx="866.5" cy="291.9" r="10" fill="#8B5DA8"/><circle cx="1102.2" cy="297.9" r="10" fill="#8B5DA8"/><line x1="866.5" y1="262.4" x2="1102.2" y2="295.0" stroke="#23846B" stroke-width="5" opacity="0.74"/><circle cx="866.5" cy="262.4" r="10" fill="#23846B"/><circle cx="1102.2" cy="295.0" r="10" fill="#23846B"/><text class="tick" x="866.5" y="590" text-anchor="middle">49 páginas</text><text class="tick" x="1102.2" y="590" text-anchor="middle">581 páginas</text><line x1="1146.25" y1="210" x2="1146.25" y2="607" stroke="#C7D0DC" stroke-width="1.5"/><text class="label" x="1308.1" y="184" text-anchor="middle">Recall@10</text><line x1="1190.2" y1="227.2" x2="1426.0" y2="275.5" stroke="#356A9A" stroke-width="5" opacity="0.74"/><circle cx="1190.2" cy="227.2" r="10" fill="#356A9A"/><circle cx="1426.0" cy="275.5" r="10" fill="#356A9A"/><line x1="1190.2" y1="223.8" x2="1426.0" y2="230.7" stroke="#8B5DA8" stroke-width="5" opacity="0.74"/><circle cx="1190.2" cy="223.8" r="10" fill="#8B5DA8"/><circle cx="1426.0" cy="230.7" r="10" fill="#8B5DA8"/><line x1="1190.2" y1="220.4" x2="1426.0" y2="223.8" stroke="#23846B" stroke-width="5" opacity="0.74"/><circle cx="1190.2" cy="220.4" r="10" fill="#23846B"/><circle cx="1426.0" cy="223.8" r="10" fill="#23846B"/><text class="tick" x="1190.2" y="590" text-anchor="middle">49 páginas</text><text class="tick" x="1426.0" y="590" text-anchor="middle">581 páginas</text><rect x="245" y="640" width="1270" height="154" rx="5" fill="white" stroke="#C7D0DC" stroke-width="1.5"/><rect x="245" y="640" width="1270" height="40" rx="5" fill="#EEF3F8"/><text class="label" x="261" y="667">Método (49→581 p.)</text><text class="label" x="640.0" y="667" text-anchor="middle">MRR@10</text><text class="label" x="890.0" y="667" text-anchor="middle">MAP@10</text><line x1="765.0" y1="640" x2="765.0" y2="794" stroke="#D9E1EA" stroke-width="1"/><text class="label" x="1140.0" y="667" text-anchor="middle">nDCG@10</text><line x1="1015.0" y1="640" x2="1015.0" y2="794" stroke="#D9E1EA" stroke-width="1"/><text class="label" x="1390.0" y="667" text-anchor="middle">Recall@10</text><line x1="1265.0" y1="640" x2="1265.0" y2="794" stroke="#D9E1EA" stroke-width="1"/><line x1="515" y1="640" x2="515" y2="794" stroke="#C7D0DC" stroke-width="1.5"/><circle cx="265" cy="699.0" r="7" fill="#356A9A"/><text class="tick" x="281" y="705">BM25</text><text class="value" x="640.0" y="705" text-anchor="middle">0.719 → 0.576</text><text class="value" x="890.0" y="705" text-anchor="middle">0.714 → 0.540</text><text class="value" x="1140.0" y="705" text-anchor="middle">0.776 → 0.621</text><text class="value" x="1390.0" y="705" text-anchor="middle">0.950 → 0.810</text><rect x="246" y="718" width="1268" height="38" fill="#F8FAFC"/><line x1="245" y1="718" x2="1515" y2="718" stroke="#D9E1EA" stroke-width="1"/><circle cx="265" cy="737.0" r="7" fill="#8B5DA8"/><text class="tick" x="281" y="743">Denso</text><text class="value" x="640.0" y="743" text-anchor="middle">0.703 → 0.708</text><text class="value" x="890.0" y="743" text-anchor="middle">0.697 → 0.664</text><text class="value" x="1140.0" y="743" text-anchor="middle">0.762 → 0.745</text><text class="value" x="1390.0" y="743" text-anchor="middle">0.960 → 0.940</text><line x1="245" y1="756" x2="1515" y2="756" stroke="#D9E1EA" stroke-width="1"/><circle cx="265" cy="775.0" r="7" fill="#23846B"/><text class="tick" x="281" y="781">Híbrido (RRF)</text><text class="value" x="640.0" y="781" text-anchor="middle">0.815 → 0.709</text><text class="value" x="890.0" y="781" text-anchor="middle">0.803 → 0.672</text><text class="value" x="1140.0" y="781" text-anchor="middle">0.848 → 0.754</text><text class="value" x="1390.0" y="781" text-anchor="middle">0.970 → 0.960</text><rect x="570" y="795" width="18" height="18" rx="3" fill="#356A9A"/><text class="tick" x="598" y="810">BM25</text><rect x="805" y="795" width="18" height="18" rx="3" fill="#8B5DA8"/><text class="tick" x="833" y="810">Denso</text><rect x="1040" y="795" width="18" height="18" rx="3" fill="#23846B"/><text class="tick" x="1068" y="810">Híbrido (RRF)</text><text class="caption" x="100" y="865">Cada linha conecta o mesmo recuperador entre os dois corpora; inclinação descendente indica queda de desempenho ao ampliar o espaço de busca.</text></svg>
