<svg xmlns="http://www.w3.org/2000/svg" width="1600" height="900" viewBox="0 0 1600 900"><rect width="100%" height="100%" fill="#FFFFFF"/><style>text{font-family:Arial,Helvetica,sans-serif;fill:#172033}.title{font-size:36px;font-weight:700}.subtitle{font-size:20px;fill:#526175}.caption{font-size:17px;fill:#526175}.tick{font-size:18px;fill:#42526A}.label{font-size:20px;font-weight:700}.value{font-size:19px;font-weight:700}.grid{stroke:#DCE3EC;stroke-width:1.5}.axis{stroke:#718096;stroke-width:1.5}.ci{stroke:#172033;stroke-width:2.5}</style><text class="title" x="100" y="72">Visão geral: desempenho de recuperação nos três conjuntos</text><text class="subtitle" x="100" y="106">Mesma escala de 0 a 1 • célula mais escura = melhor desempenho • valores são médias no top-10</text><text class="label" x="90" y="198">SciQ</text><text class="subtitle" x="90" y="222">878 consultas</text><text class="tick" x="226.0" y="248" text-anchor="middle">MRR</text><text class="tick" x="310.0" y="248" text-anchor="middle">MAP</text><text class="tick" x="394.0" y="248" text-anchor="middle">nDCG</text><text class="tick" x="478.0" y="248" text-anchor="middle">Recall</text><rect x="90" y="260" width="84" height="82" fill="#356A9A" rx="4"/><text x="132.0" y="311" text-anchor="middle" font-family="Arial,Helvetica,sans-serif" font-size="17" font-weight="700" fill="white">BM25</text><rect x="184" y="260" width="80" height="82" fill="#41998A" rx="4"/><text x="224.0" y="311" text-anchor="middle" font-family="Arial,Helvetica,sans-serif" font-size="19" font-weight="700" fill="#FFFFFF">0.775</text><rect x="268" y="260" width="80" height="82" fill="#41998A" rx="4"/><text x="308.0" y="311" text-anchor="middle" font-family="Arial,Helvetica,sans-serif" font-size="19" font-weight="700" fill="#FFFFFF">0.775</text><rect x="352" y="260" width="80" height="82" fill="#379183" rx="4"/><text x="392.0" y="311" text-anchor="middle" font-family="Arial,Helvetica,sans-serif" font-size="19" font-weight="700" fill="#FFFFFF">0.819</text><rect x="436" y="260" width="80" height="82" fill="#16796E" rx="4"/><text x="476.0" y="311" text-anchor="middle" font-family="Arial,Helvetica,sans-serif" font-size="19" font-weight="700" fill="#FFFFFF">0.952</text><rect x="90" y="346" width="84" height="82" fill="#8B5DA8" rx="4"/><text x="132.0" y="397" text-anchor="middle" font-family="Arial,Helvetica,sans-serif" font-size="17" font-weight="700" fill="white">Denso</text><rect x="184" y="346" width="80" height="82" fill="#4FA292" rx="4"/><text x="224.0" y="397" text-anchor="middle" font-family="Arial,Helvetica,sans-serif" font-size="19" font-weight="700" fill="#172033">0.719</text><rect x="268" y="346" width="80" height="82" fill="#4FA292" rx="4"/><text x="308.0" y="397" text-anchor="middle" font-family="Arial,Helvetica,sans-serif" font-size="19" font-weight="700" fill="#172033">0.719</text><rect x="352" y="346" width="80" height="82" fill="#439A8B" rx="4"/><text x="392.0" y="397" text-anchor="middle" font-family="Arial,Helvetica,sans-serif" font-size="19" font-weight="700" fill="#FFFFFF">0.769</text><rect x="436" y="346" width="80" height="82" fill="#1D7E73" rx="4"/><text x="476.0" y="397" text-anchor="middle" font-family="Arial,Helvetica,sans-serif" font-size="19" font-weight="700" fill="#FFFFFF">0.923</text><rect x="90" y="432" width="84" height="82" fill="#23846B" rx="4"/><text x="132.0" y="483" text-anchor="middle" font-family="Arial,Helvetica,sans-serif" font-size="17" font-weight="700" fill="white">Híbrido</text><rect x="184" y="432" width="80" height="82" fill="#3C9586" rx="4"/><text x="224.0" y="483" text-anchor="middle" font-family="Arial,Helvetica,sans-serif" font-size="19" font-weight="700" fill="#FFFFFF">0.797</text><rect x="268" y="432" width="80" height="82" fill="#3C9586" rx="4"/><text x="308.0" y="483" text-anchor="middle" font-family="Arial,Helvetica,sans-serif" font-size="19" font-weight="700" fill="#FFFFFF">0.797</text><rect x="352" y="432" width="80" height="82" fill="#328D80" rx="4"/><text x="392.0" y="483" text-anchor="middle" font-family="Arial,Helvetica,sans-serif" font-size="19" font-weight="700" fill="#FFFFFF">0.839</text><rect x="436" y="432" width="80" height="82" fill="#12766C" rx="4"/><text x="476.0" y="483" text-anchor="middle" font-family="Arial,Helvetica,sans-serif" font-size="19" font-weight="700" fill="#FFFFFF">0.968</text><rect x="90" y="172" width="430" height="360" fill="none" stroke="#D7DEE8" stroke-width="1.5" rx="8"/><text class="label" x="560" y="198">Ato de Ler</text><text class="subtitle" x="560" y="222">49 páginas • 50 consultas</text><text class="tick" x="696.0" y="248" text-anchor="middle">MRR</text><text class="tick" x="780.0" y="248" text-anchor="middle">MAP</text><text class="tick" x="864.0" y="248" text-anchor="middle">nDCG</text><text class="tick" x="948.0" y="248" text-anchor="middle">Recall</text><rect x="560" y="260" width="84" height="82" fill="#356A9A" rx="4"/><text x="602.0" y="311" text-anchor="middle" font-family="Arial,Helvetica,sans-serif" font-size="17" font-weight="700" fill="white">BM25</text><rect x="654" y="260" width="80" height="82" fill="#4FA392" rx="4"/><text x="694.0" y="311" text-anchor="middle" font-family="Arial,Helvetica,sans-serif" font-size="19" font-weight="700" fill="#172033">0.719</text><rect x="738" y="260" width="80" height="82" fill="#50A393" rx="4"/><text x="778.0" y="311" text-anchor="middle" font-family="Arial,Helvetica,sans-serif" font-size="19" font-weight="700" fill="#172033">0.714</text><rect x="822" y="260" width="80" height="82" fill="#41988A" rx="4"/><text x="862.0" y="311" text-anchor="middle" font-family="Arial,Helvetica,sans-serif" font-size="19" font-weight="700" fill="#FFFFFF">0.776</text><rect x="906" y="260" width="80" height="82" fill="#16796F" rx="4"/><text x="946.0" y="311" text-anchor="middle" font-family="Arial,Helvetica,sans-serif" font-size="19" font-weight="700" fill="#FFFFFF">0.950</text><rect x="560" y="346" width="84" height="82" fill="#8B5DA8" rx="4"/><text x="602.0" y="397" text-anchor="middle" font-family="Arial,Helvetica,sans-serif" font-size="17" font-weight="700" fill="white">Denso</text><rect x="654" y="346" width="80" height="82" fill="#53A695" rx="4"/><text x="694.0" y="397" text-anchor="middle" font-family="Arial,Helvetica,sans-serif" font-size="19" font-weight="700" fill="#172033">0.703</text><rect x="738" y="346" width="80" height="82" fill="#55A796" rx="4"/><text x="778.0" y="397" text-anchor="middle" font-family="Arial,Helvetica,sans-serif" font-size="19" font-weight="700" fill="#172033">0.697</text><rect x="822" y="346" width="80" height="82" fill="#449B8C" rx="4"/><text x="862.0" y="397" text-anchor="middle" font-family="Arial,Helvetica,sans-serif" font-size="19" font-weight="700" fill="#FFFFFF">0.762</text><rect x="906" y="346" width="80" height="82" fill="#14776D" rx="4"/><text x="946.0" y="397" text-anchor="middle" font-family="Arial,Helvetica,sans-serif" font-size="19" font-weight="700" fill="#FFFFFF">0.960</text><rect x="560" y="432" width="84" height="82" fill="#23846B" rx="4"/><text x="602.0" y="483" text-anchor="middle" font-family="Arial,Helvetica,sans-serif" font-size="17" font-weight="700" fill="white">Híbrido</text><rect x="654" y="432" width="80" height="82" fill="#389183" rx="4"/><text x="694.0" y="483" text-anchor="middle" font-family="Arial,Helvetica,sans-serif" font-size="19" font-weight="700" fill="#FFFFFF">0.815</text><rect x="738" y="432" width="80" height="82" fill="#3A9385" rx="4"/><text x="778.0" y="483" text-anchor="middle" font-family="Arial,Helvetica,sans-serif" font-size="19" font-weight="700" fill="#FFFFFF">0.803</text><rect x="822" y="432" width="80" height="82" fill="#2F8B7E" rx="4"/><text x="862.0" y="483" text-anchor="middle" font-family="Arial,Helvetica,sans-serif" font-size="19" font-weight="700" fill="#FFFFFF">0.848</text><rect x="906" y="432" width="80" height="82" fill="#11756C" rx="4"/><text x="946.0" y="483" text-anchor="middle" font-family="Arial,Helvetica,sans-serif" font-size="19" font-weight="700" fill="#FFFFFF">0.970</text><rect x="560" y="172" width="430" height="360" fill="none" stroke="#D7DEE8" stroke-width="1.5" rx="8"/><text class="label" x="1030" y="198">Livro de RI</text><text class="subtitle" x="1030" y="222">581 páginas • 50 consultas</text><text class="tick" x="1166.0" y="248" text-anchor="middle">MRR</text><text class="tick" x="1250.0" y="248" text-anchor="middle">MAP</text><text class="tick" x="1334.0" y="248" text-anchor="middle">nDCG</text><text class="tick" x="1418.0" y="248" text-anchor="middle">Recall</text><rect x="1030" y="260" width="84" height="82" fill="#356A9A" rx="4"/><text x="1072.0" y="311" text-anchor="middle" font-family="Arial,Helvetica,sans-serif" font-size="17" font-weight="700" fill="white">BM25</text><rect x="1124" y="260" width="80" height="82" fill="#72BCA8" rx="4"/><text x="1164.0" y="311" text-anchor="middle" font-family="Arial,Helvetica,sans-serif" font-size="19" font-weight="700" fill="#172033">0.576</text><rect x="1208" y="260" width="80" height="82" fill="#7BC3AE" rx="4"/><text x="1248.0" y="311" text-anchor="middle" font-family="Arial,Helvetica,sans-serif" font-size="19" font-weight="700" fill="#172033">0.540</text><rect x="1292" y="260" width="80" height="82" fill="#67B4A1" rx="4"/><text x="1332.0" y="311" text-anchor="middle" font-family="Arial,Helvetica,sans-serif" font-size="19" font-weight="700" fill="#172033">0.621</text><rect x="1376" y="260" width="80" height="82" fill="#399284" rx="4"/><text x="1416.0" y="311" text-anchor="middle" font-family="Arial,Helvetica,sans-serif" font-size="19" font-weight="700" fill="#FFFFFF">0.810</text><rect x="1030" y="346" width="84" height="82" fill="#8B5DA8" rx="4"/><text x="1072.0" y="397" text-anchor="middle" font-family="Arial,Helvetica,sans-serif" font-size="17" font-weight="700" fill="white">Denso</text><rect x="1124" y="346" width="80" height="82" fill="#52A594" rx="4"/><text x="1164.0" y="397" text-anchor="middle" font-family="Arial,Helvetica,sans-serif" font-size="19" font-weight="700" fill="#172033">0.708</text><rect x="1208" y="346" width="80" height="82" fill="#5DAD9B" rx="4"/><text x="1248.0" y="397" text-anchor="middle" font-family="Arial,Helvetica,sans-serif" font-size="19" font-weight="700" fill="#172033">0.664</text><rect x="1292" y="346" width="80" height="82" fill="#499E8E" rx="4"/><text x="1332.0" y="397" text-anchor="middle" font-family="Arial,Helvetica,sans-serif" font-size="19" font-weight="700" fill="#172033">0.745</text><rect x="1376" y="346" width="80" height="82" fill="#197B70" rx="4"/><text x="1416.0" y="397" text-anchor="middle" font-family="Arial,Helvetica,sans-serif" font-size="19" font-weight="700" fill="#FFFFFF">0.940</text><rect x="1030" y="432" width="84" height="82" fill="#23846B" rx="4"/><text x="1072.0" y="483" text-anchor="middle" font-family="Arial,Helvetica,sans-serif" font-size="17" font-weight="700" fill="white">Híbrido</text><rect x="1124" y="432" width="80" height="82" fill="#51A494" rx="4"/><text x="1164.0" y="483" text-anchor="middle" font-family="Arial,Helvetica,sans-serif" font-size="19" font-weight="700" fill="#172033">0.709</text><rect x="1208" y="432" width="80" height="82" fill="#5BAB9A" rx="4"/><text x="1248.0" y="483" text-anchor="middle" font-family="Arial,Helvetica,sans-serif" font-size="19" font-weight="700" fill="#172033">0.672</text><rect x="1292" y="432" width="80" height="82" fill="#479C8D" rx="4"/><text x="1332.0" y="483" text-anchor="middle" font-family="Arial,Helvetica,sans-serif" font-size="19" font-weight="700" fill="#172033">0.754</text><rect x="1376" y="432" width="80" height="82" fill="#14776D" rx="4"/><text x="1416.0" y="483" text-anchor="middle" font-family="Arial,Helvetica,sans-serif" font-size="19" font-weight="700" fill="#FFFFFF">0.960</text><rect x="1030" y="172" width="430" height="360" fill="none" stroke="#D7DEE8" stroke-width="1.5" rx="8"/><rect x="575.0" y="650" width="5.5" height="20" fill="#F6F8FA"/><rect x="579.5" y="650" width="5.5" height="20" fill="#F4F7F9"/><rect x="584.0" y="650" width="5.5" height="20" fill="#F1F6F7"/><rect x="588.5" y="650" width="5.5" height="20" fill="#EFF5F6"/><rect x="593.0" y="650" width="5.5" height="20" fill="#EDF4F4"/><rect x="597.5" y="650" width="5.5" height="20" fill="#EBF3F3"/><rect x="602.0" y="650" width="5.5" height="20" fill="#E8F2F2"/><rect x="606.5" y="650" width="5.5" height="20" fill="#E6F1F0"/><rect x="611.0" y="650" width="5.5" height="20" fill="#E4F1EF"/><rect x="615.5" y="650" width="5.5" height="20" fill="#E1F0ED"/><rect x="620.0" y="650" width="5.5" height="20" fill="#DFEFEC"/><rect x="624.5" y="650" width="5.5" height="20" fill="#DDEEEA"/><rect x="629.0" y="650" width="5.5" height="20" fill="#DBEDE9"/><rect x="633.5" y="650" width="5.5" height="20" fill="#D8ECE8"/><rect x="638.0" y="650" width="5.5" height="20" fill="#D6EBE6"/><rect x="642.5" y="650" width="5.5" height="20" fill="#D4EAE5"/><rect x="647.0" y="650" width="5.5" height="20" fill="#D1E9E3"/><rect x="651.5" y="650" width="5.5" height="20" fill="#CFE8E2"/><rect x="656.0" y="650" width="5.5" height="20" fill="#CDE7E1"/><rect x="660.5" y="650" width="5.5" height="20" fill="#CBE6DF"/><rect x="665.0" y="650" width="5.5" height="20" fill="#C8E5DE"/><rect x="669.5" y="650" width="5.5" height="20" fill="#C6E4DC"/><rect x="674.0" y="650" width="5.5" height="20" fill="#C4E4DB"/><rect x="678.5" y="650" width="5.5" height="20" fill="#C1E3D9"/><rect x="683.0" y="650" width="5.5" height="20" fill="#BFE2D8"/><rect x="687.5" y="650" width="5.5" height="20" fill="#BDE1D7"/><rect x="692.0" y="650" width="5.5" height="20" fill="#BBE0D5"/><rect x="696.5" y="650" width="5.5" height="20" fill="#B8DFD4"/><rect x="701.0" y="650" width="5.5" height="20" fill="#B6DED2"/><rect x="705.5" y="650" width="5.5" height="20" fill="#B4DDD1"/><rect x="710.0" y="650" width="5.5" height="20" fill="#B2DCD0"/><rect x="714.5" y="650" width="5.5" height="20" fill="#AFDBCE"/><rect x="719.0" y="650" width="5.5" height="20" fill="#ADDACD"/><rect x="723.5" y="650" width="5.5" height="20" fill="#ABD9CB"/><rect x="728.0" y="650" width="5.5" height="20" fill="#A8D8CA"/><rect x="732.5" y="650" width="5.5" height="20" fill="#A6D7C9"/><rect x="737.0" y="650" width="5.5" height="20" fill="#A4D7C7"/><rect x="741.5" y="650" width="5.5" height="20" fill="#A2D6C6"/><rect x="746.0" y="650" width="5.5" height="20" fill="#9FD5C4"/><rect x="750.5" y="650" width="5.5" height="20" fill="#9DD4C3"/><rect x="755.0" y="650" width="5.5" height="20" fill="#9BD3C1"/><rect x="759.5" y="650" width="5.5" height="20" fill="#98D2C0"/><rect x="764.0" y="650" width="5.5" height="20" fill="#96D1BF"/><rect x="768.5" y="650" width="5.5" height="20" fill="#94D0BD"/><rect x="773.0" y="650" width="5.5" height="20" fill="#92CFBC"/><rect x="777.5" y="650" width="5.5" height="20" fill="#8FCEBA"/><rect x="782.0" y="650" width="5.5" height="20" fill="#8DCDB9"/><rect x="786.5" y="650" width="5.5" height="20" fill="#8BCCB8"/><rect x="791.0" y="650" width="5.5" height="20" fill="#88CBB6"/><rect x="795.5" y="650" width="5.5" height="20" fill="#86CAB5"/><rect x="800.0" y="650" width="5.5" height="20" fill="#84C9B3"/><rect x="804.5" y="650" width="5.5" height="20" fill="#81C7B2"/><rect x="809.0" y="650" width="5.5" height="20" fill="#7FC5B0"/><rect x="813.5" y="650" width="5.5" height="20" fill="#7CC4AF"/><rect x="818.0" y="650" width="5.5" height="20" fill="#7AC2AD"/><rect x="822.5" y="650" width="5.5" height="20" fill="#77C0AB"/><rect x="827.0" y="650" width="5.5" height="20" fill="#75BEAA"/><rect x="831.5" y="650" width="5.5" height="20" fill="#72BCA8"/><rect x="836.0" y="650" width="5.5" height="20" fill="#70BBA7"/><rect x="840.5" y="650" width="5.5" height="20" fill="#6DB9A5"/><rect x="845.0" y="650" width="5.5" height="20" fill="#6BB7A4"/><rect x="849.5" y="650" width="5.5" height="20" fill="#68B5A2"/><rect x="854.0" y="650" width="5.5" height="20" fill="#66B3A1"/><rect x="858.5" y="650" width="5.5" height="20" fill="#63B19F"/><rect x="863.0" y="650" width="5.5" height="20" fill="#61B09D"/><rect x="867.5" y="650" width="5.5" height="20" fill="#5EAE9C"/><rect x="872.0" y="650" width="5.5" height="20" fill="#5CAC9A"/><rect x="876.5" y="650" width="5.5" height="20" fill="#5AAA99"/><rect x="881.0" y="650" width="5.5" height="20" fill="#57A897"/><rect x="885.5" y="650" width="5.5" height="20" fill="#55A796"/><rect x="890.0" y="650" width="5.5" height="20" fill="#52A594"/><rect x="894.5" y="650" width="5.5" height="20" fill="#50A393"/><rect x="899.0" y="650" width="5.5" height="20" fill="#4DA191"/><rect x="903.5" y="650" width="5.5" height="20" fill="#4B9F8F"/><rect x="908.0" y="650" width="5.5" height="20" fill="#489D8E"/><rect x="912.5" y="650" width="5.5" height="20" fill="#469C8C"/><rect x="917.0" y="650" width="5.5" height="20" fill="#439A8B"/><rect x="921.5" y="650" width="5.5" height="20" fill="#419889"/><rect x="926.0" y="650" width="5.5" height="20" fill="#3E9688"/><rect x="930.5" y="650" width="5.5" height="20" fill="#3C9486"/><rect x="935.0" y="650" width="5.5" height="20" fill="#399385"/><rect x="939.5" y="650" width="5.5" height="20" fill="#379183"/><rect x="944.0" y="650" width="5.5" height="20" fill="#348F81"/><rect x="948.5" y="650" width="5.5" height="20" fill="#328D80"/><rect x="953.0" y="650" width="5.5" height="20" fill="#2F8B7E"/><rect x="957.5" y="650" width="5.5" height="20" fill="#2D897D"/><rect x="962.0" y="650" width="5.5" height="20" fill="#2A887B"/><rect x="966.5" y="650" width="5.5" height="20" fill="#28867A"/><rect x="971.0" y="650" width="5.5" height="20" fill="#258478"/><rect x="975.5" y="650" width="5.5" height="20" fill="#238277"/><rect x="980.0" y="650" width="5.5" height="20" fill="#208075"/><rect x="984.5" y="650" width="5.5" height="20" fill="#1E7F73"/><rect x="989.0" y="650" width="5.5" height="20" fill="#1B7D72"/><rect x="993.5" y="650" width="5.5" height="20" fill="#197B70"/><rect x="998.0" y="650" width="5.5" height="20" fill="#16796F"/><rect x="1002.5" y="650" width="5.5" height="20" fill="#14776D"/><rect x="1007.0" y="650" width="5.5" height="20" fill="#11756C"/><rect x="1011.5" y="650" width="5.5" height="20" fill="#0F746A"/><rect x="1016.0" y="650" width="5.5" height="20" fill="#0C7269"/><rect x="1020.5" y="650" width="5.5" height="20" fill="#0A7067"/><text class="tick" x="563" y="666" text-anchor="end">0,0</text><text class="tick" x="1037" y="666">1,0</text><text class="caption" x="100" y="740">Leitura: o híbrido lidera no SciQ e no corpus de 49 páginas; no livro de RI, denso e híbrido têm resultados muito próximos e superam o BM25.</text><text class="caption" x="100" y="775">No SciQ há uma única evidência relevante por pergunta, por isso MRR@10 e MAP@10 têm o mesmo valor.</text></svg>
