<svg xmlns="http://www.w3.org/2000/svg" width="1280" height="850" viewBox="0 0 1280 850"><rect width="100%" height="100%" fill="white"/><style>text{font-family:Arial,sans-serif;fill:#253247}.title{font-size:24px;font-weight:700}.subtitle{font-size:14px}.label{font-size:13px}.tick{font-size:12px}.legend{font-size:12px}.grid{stroke:#d7dee8;stroke-width:1}.axis{stroke:#253247;stroke-width:1.5}</style><text class="title" x="70" y="40">Curvas de métricas por k</text><text class="subtitle" x="70" y="62">Os pontos são calculados a partir dos rankings top-10 persistidos</text><rect x="85" y="82" width="13" height="13" fill="#31688e" rx="2"/><text class="legend" x="104" y="93">Recursive Text / BM25</text><rect x="370" y="82" width="13" height="13" fill="#7e4fa3" rx="2"/><text class="legend" x="389" y="93">Recursive Text / DENSE</text><rect x="655" y="82" width="13" height="13" fill="#24907b" rx="2"/><text class="legend" x="674" y="93">Recursive Text / HYBRID</text><text class="label" x="337.50" y="129" text-anchor="middle">Hit rate</text><line class="grid" x1="85" y1="390.00" x2="590" y2="390.00"/><text class="tick" x="77" y="394.00" text-anchor="end">0.0</text><line class="grid" x1="85" y1="341.00" x2="590" y2="341.00"/><text class="tick" x="77" y="345.00" text-anchor="end">0.2</text><line class="grid" x1="85" y1="292.00" x2="590" y2="292.00"/><text class="tick" x="77" y="296.00" text-anchor="end">0.4</text><line class="grid" x1="85" y1="243.00" x2="590" y2="243.00"/><text class="tick" x="77" y="247.00" text-anchor="end">0.6</text><line class="grid" x1="85" y1="194.00" x2="590" y2="194.00"/><text class="tick" x="77" y="198.00" text-anchor="end">0.8</text><line class="grid" x1="85" y1="145.00" x2="590" y2="145.00"/><text class="tick" x="77" y="149.00" text-anchor="end">1.0</text><line class="axis" x1="85" y1="145" x2="85" y2="390"/><line class="axis" x1="85" y1="390" x2="590" y2="390"/><text class="tick" x="85.00" y="412" text-anchor="middle">1</text><text class="tick" x="253.33" y="412" text-anchor="middle">3</text><text class="tick" x="421.67" y="412" text-anchor="middle">5</text><text class="tick" x="590.00" y="412" text-anchor="middle">10</text><polyline points="85.00,282.20 253.33,208.70 421.67,194.00 590.00,189.10" fill="none" stroke="#31688e" stroke-width="2.5"/><circle cx="85.00" cy="282.20" r="3.5" fill="#31688e"/><circle cx="253.33" cy="208.70" r="3.5" fill="#31688e"/><circle cx="421.67" cy="194.00" r="3.5" fill="#31688e"/><circle cx="590.00" cy="189.10" r="3.5" fill="#31688e"/><polyline points="85.00,247.90 253.33,198.90 421.67,169.50 590.00,149.90" fill="none" stroke="#7e4fa3" stroke-width="2.5"/><circle cx="85.00" cy="247.90" r="3.5" fill="#7e4fa3"/><circle cx="253.33" cy="198.90" r="3.5" fill="#7e4fa3"/><circle cx="421.67" cy="169.50" r="3.5" fill="#7e4fa3"/><circle cx="590.00" cy="149.90" r="3.5" fill="#7e4fa3"/><polyline points="85.00,243.00 253.33,194.00 421.67,179.30 590.00,149.90" fill="none" stroke="#24907b" stroke-width="2.5"/><circle cx="85.00" cy="243.00" r="3.5" fill="#24907b"/><circle cx="253.33" cy="194.00" r="3.5" fill="#24907b"/><circle cx="421.67" cy="179.30" r="3.5" fill="#24907b"/><circle cx="590.00" cy="149.90" r="3.5" fill="#24907b"/><text class="label" x="947.50" y="129" text-anchor="middle">Recall</text><line class="grid" x1="695" y1="390.00" x2="1200" y2="390.00"/><text class="tick" x="687" y="394.00" text-anchor="end">0.0</text><line class="grid" x1="695" y1="341.00" x2="1200" y2="341.00"/><text class="tick" x="687" y="345.00" text-anchor="end">0.2</text><line class="grid" x1="695" y1="292.00" x2="1200" y2="292.00"/><text class="tick" x="687" y="296.00" text-anchor="end">0.4</text><line class="grid" x1="695" y1="243.00" x2="1200" y2="243.00"/><text class="tick" x="687" y="247.00" text-anchor="end">0.6</text><line class="grid" x1="695" y1="194.00" x2="1200" y2="194.00"/><text class="tick" x="687" y="198.00" text-anchor="end">0.8</text><line class="grid" x1="695" y1="145.00" x2="1200" y2="145.00"/><text class="tick" x="687" y="149.00" text-anchor="end">1.0</text><line class="axis" x1="695" y1="145" x2="695" y2="390"/><line class="axis" x1="695" y1="390" x2="1200" y2="390"/><text class="tick" x="695.00" y="412" text-anchor="middle">1</text><text class="tick" x="863.33" y="412" text-anchor="middle">3</text><text class="tick" x="1031.67" y="412" text-anchor="middle">5</text><text class="tick" x="1200.00" y="412" text-anchor="middle">10</text><polyline points="695.00,306.70 863.33,225.85 1031.67,211.15 1200.00,191.55" fill="none" stroke="#31688e" stroke-width="2.5"/><circle cx="695.00" cy="306.70" r="3.5" fill="#31688e"/><circle cx="863.33" cy="225.85" r="3.5" fill="#31688e"/><circle cx="1031.67" cy="211.15" r="3.5" fill="#31688e"/><circle cx="1200.00" cy="191.55" r="3.5" fill="#31688e"/><polyline points="695.00,282.20 863.33,216.05 1031.67,176.85 1200.00,159.70" fill="none" stroke="#7e4fa3" stroke-width="2.5"/><circle cx="695.00" cy="282.20" r="3.5" fill="#7e4fa3"/><circle cx="863.33" cy="216.05" r="3.5" fill="#7e4fa3"/><circle cx="1031.67" cy="176.85" r="3.5" fill="#7e4fa3"/><circle cx="1200.00" cy="159.70" r="3.5" fill="#7e4fa3"/><polyline points="695.00,277.30 863.33,211.15 1031.67,189.10 1200.00,154.80" fill="none" stroke="#24907b" stroke-width="2.5"/><circle cx="695.00" cy="277.30" r="3.5" fill="#24907b"/><circle cx="863.33" cy="211.15" r="3.5" fill="#24907b"/><circle cx="1031.67" cy="189.10" r="3.5" fill="#24907b"/><circle cx="1200.00" cy="154.80" r="3.5" fill="#24907b"/><text class="label" x="337.50" y="479" text-anchor="middle">nDCG</text><line class="grid" x1="85" y1="740.00" x2="590" y2="740.00"/><text class="tick" x="77" y="744.00" text-anchor="end">0.0</text><line class="grid" x1="85" y1="691.00" x2="590" y2="691.00"/><text class="tick" x="77" y="695.00" text-anchor="end">0.2</text><line class="grid" x1="85" y1="642.00" x2="590" y2="642.00"/><text class="tick" x="77" y="646.00" text-anchor="end">0.4</text><line class="grid" x1="85" y1="593.00" x2="590" y2="593.00"/><text class="tick" x="77" y="597.00" text-anchor="end">0.6</text><line class="grid" x1="85" y1="544.00" x2="590" y2="544.00"/><text class="tick" x="77" y="548.00" text-anchor="end">0.8</text><line class="grid" x1="85" y1="495.00" x2="590" y2="495.00"/><text class="tick" x="77" y="499.00" text-anchor="end">1.0</text><line class="axis" x1="85" y1="495" x2="85" y2="740"/><line class="axis" x1="85" y1="740" x2="590" y2="740"/><text class="tick" x="85.00" y="762" text-anchor="middle">1</text><text class="tick" x="253.33" y="762" text-anchor="middle">3</text><text class="tick" x="421.67" y="762" text-anchor="middle">5</text><text class="tick" x="590.00" y="762" text-anchor="middle">10</text><polyline points="85.00,632.20 253.33,601.80 421.67,595.12 590.00,587.84" fill="none" stroke="#31688e" stroke-width="2.5"/><circle cx="85.00" cy="632.20" r="3.5" fill="#31688e"/><circle cx="253.33" cy="601.80" r="3.5" fill="#31688e"/><circle cx="421.67" cy="595.12" r="3.5" fill="#31688e"/><circle cx="590.00" cy="587.84" r="3.5" fill="#31688e"/><polyline points="85.00,597.90 253.33,580.30 421.67,563.74 590.00,557.43" fill="none" stroke="#7e4fa3" stroke-width="2.5"/><circle cx="85.00" cy="597.90" r="3.5" fill="#7e4fa3"/><circle cx="253.33" cy="580.30" r="3.5" fill="#7e4fa3"/><circle cx="421.67" cy="563.74" r="3.5" fill="#7e4fa3"/><circle cx="590.00" cy="557.43" r="3.5" fill="#7e4fa3"/><polyline points="85.00,593.00 253.33,576.19 421.67,567.17 590.00,555.35" fill="none" stroke="#24907b" stroke-width="2.5"/><circle cx="85.00" cy="593.00" r="3.5" fill="#24907b"/><circle cx="253.33" cy="576.19" r="3.5" fill="#24907b"/><circle cx="421.67" cy="567.17" r="3.5" fill="#24907b"/><circle cx="590.00" cy="555.35" r="3.5" fill="#24907b"/><text class="label" x="947.50" y="479" text-anchor="middle">MRR</text><line class="grid" x1="695" y1="740.00" x2="1200" y2="740.00"/><text class="tick" x="687" y="744.00" text-anchor="end">0.0</text><line class="grid" x1="695" y1="691.00" x2="1200" y2="691.00"/><text class="tick" x="687" y="695.00" text-anchor="end">0.2</text><line class="grid" x1="695" y1="642.00" x2="1200" y2="642.00"/><text class="tick" x="687" y="646.00" text-anchor="end">0.4</text><line class="grid" x1="695" y1="593.00" x2="1200" y2="593.00"/><text class="tick" x="687" y="597.00" text-anchor="end">0.6</text><line class="grid" x1="695" y1="544.00" x2="1200" y2="544.00"/><text class="tick" x="687" y="548.00" text-anchor="end">0.8</text><line class="grid" x1="695" y1="495.00" x2="1200" y2="495.00"/><text class="tick" x="687" y="499.00" text-anchor="end">1.0</text><line class="axis" x1="695" y1="495" x2="695" y2="740"/><line class="axis" x1="695" y1="740" x2="1200" y2="740"/><text class="tick" x="695.00" y="762" text-anchor="middle">1</text><text class="tick" x="863.33" y="762" text-anchor="middle">3</text><text class="tick" x="1031.67" y="762" text-anchor="middle">5</text><text class="tick" x="1200.00" y="762" text-anchor="middle">10</text><polyline points="695.00,632.20 863.33,602.80 1031.67,599.37 1200.00,598.83" fill="none" stroke="#31688e" stroke-width="2.5"/><circle cx="695.00" cy="632.20" r="3.5" fill="#31688e"/><circle cx="863.33" cy="602.80" r="3.5" fill="#31688e"/><circle cx="1031.67" cy="599.37" r="3.5" fill="#31688e"/><circle cx="1200.00" cy="598.83" r="3.5" fill="#31688e"/><polyline points="695.00,597.90 863.33,576.67 1031.67,569.81 1200.00,566.54" fill="none" stroke="#7e4fa3" stroke-width="2.5"/><circle cx="695.00" cy="597.90" r="3.5" fill="#7e4fa3"/><circle cx="863.33" cy="576.67" r="3.5" fill="#7e4fa3"/><circle cx="1031.67" cy="569.81" r="3.5" fill="#7e4fa3"/><circle cx="1200.00" cy="566.54" r="3.5" fill="#7e4fa3"/><polyline points="695.00,593.00 863.33,573.40 1031.67,569.97 1200.00,566.19" fill="none" stroke="#24907b" stroke-width="2.5"/><circle cx="695.00" cy="593.00" r="3.5" fill="#24907b"/><circle cx="863.33" cy="573.40" r="3.5" fill="#24907b"/><circle cx="1031.67" cy="569.97" r="3.5" fill="#24907b"/><circle cx="1200.00" cy="566.19" r="3.5" fill="#24907b"/></svg>