<svg xmlns="http://www.w3.org/2000/svg" width="1280" height="640" viewBox="0 0 1280 640"><rect width="100%" height="100%" fill="white"/><style>text{font-family:Arial,sans-serif;fill:#253247}.title{font-size:24px;font-weight:700}.subtitle{font-size:14px}.label{font-size:13px}.tick{font-size:12px}.legend{font-size:12px}.grid{stroke:#d7dee8;stroke-width:1}.axis{stroke:#253247;stroke-width:1.5}</style><text class="title" x="70" y="40">Posição da primeira evidência relevante</text><text class="subtitle" x="70" y="62">Quantidade de consultas cuja primeira evidência relevante aparece em cada posição</text><rect x="80" y="80" width="13" height="13" fill="#31688e" rx="2"/><text class="legend" x="99" y="91">Recursive Text / BM25</text><rect x="365" y="80" width="13" height="13" fill="#7e4fa3" rx="2"/><text class="legend" x="384" y="91">Recursive Text / DENSE</text><rect x="650" y="80" width="13" height="13" fill="#24907b" rx="2"/><text class="legend" x="669" y="91">Recursive Text / HYBRID</text><line class="grid" x1="80" y1="535.00" x2="1245" y2="535.00"/><text class="tick" x="70" y="539.00" text-anchor="end">0</text><line class="grid" x1="80" y1="453.00" x2="1245" y2="453.00"/><text class="tick" x="70" y="457.00" text-anchor="end">6</text><line class="grid" x1="80" y1="371.00" x2="1245" y2="371.00"/><text class="tick" x="70" y="375.00" text-anchor="end">12</text><line class="grid" x1="80" y1="289.00" x2="1245" y2="289.00"/><text class="tick" x="70" y="293.00" text-anchor="end">18</text><line class="grid" x1="80" y1="207.00" x2="1245" y2="207.00"/><text class="tick" x="70" y="211.00" text-anchor="end">24</text><line class="grid" x1="80" y1="125.00" x2="1245" y2="125.00"/><text class="tick" x="70" y="129.00" text-anchor="end">30</text><line class="axis" x1="80" y1="125" x2="80" y2="535"/><line class="axis" x1="80" y1="535" x2="1245" y2="535"/><rect x="86.95" y="234.33" width="26.00" height="300.67" fill="#31688e"/><text class="tick" x="99.95" y="228.33" text-anchor="middle">22</text><rect x="119.95" y="138.67" width="26.00" height="396.33" fill="#7e4fa3"/><text class="tick" x="132.95" y="132.67" text-anchor="middle">29</text><rect x="152.95" y="125.00" width="26.00" height="410.00" fill="#24907b"/><text class="tick" x="165.95" y="119.00" text-anchor="middle">30</text><text class="tick" x="132.95" y="562" text-anchor="middle">posição 1</text><rect x="192.86" y="453.00" width="26.00" height="82.00" fill="#31688e"/><text class="tick" x="205.86" y="447.00" text-anchor="middle">6</text><rect x="225.86" y="453.00" width="26.00" height="82.00" fill="#7e4fa3"/><text class="tick" x="238.86" y="447.00" text-anchor="middle">6</text><rect x="258.86" y="480.33" width="26.00" height="54.67" fill="#24907b"/><text class="tick" x="271.86" y="474.33" text-anchor="middle">4</text><text class="tick" x="238.86" y="562" text-anchor="middle">posição 2</text><rect x="298.77" y="412.00" width="26.00" height="123.00" fill="#31688e"/><text class="tick" x="311.77" y="406.00" text-anchor="middle">9</text><rect x="331.77" y="480.33" width="26.00" height="54.67" fill="#7e4fa3"/><text class="tick" x="344.77" y="474.33" text-anchor="middle">4</text><rect x="364.77" y="453.00" width="26.00" height="82.00" fill="#24907b"/><text class="tick" x="377.77" y="447.00" text-anchor="middle">6</text><text class="tick" x="344.77" y="562" text-anchor="middle">posição 3</text><rect x="404.68" y="507.67" width="26.00" height="27.33" fill="#31688e"/><text class="tick" x="417.68" y="501.67" text-anchor="middle">2</text><rect x="437.68" y="480.33" width="26.00" height="54.67" fill="#7e4fa3"/><text class="tick" x="450.68" y="474.33" text-anchor="middle">4</text><rect x="470.68" y="507.67" width="26.00" height="27.33" fill="#24907b"/><text class="tick" x="483.68" y="501.67" text-anchor="middle">2</text><text class="tick" x="450.68" y="562" text-anchor="middle">posição 4</text><rect x="510.59" y="521.33" width="26.00" height="13.67" fill="#31688e"/><text class="tick" x="523.59" y="515.33" text-anchor="middle">1</text><rect x="543.59" y="507.67" width="26.00" height="27.33" fill="#7e4fa3"/><text class="tick" x="556.59" y="501.67" text-anchor="middle">2</text><rect x="576.59" y="521.33" width="26.00" height="13.67" fill="#24907b"/><text class="tick" x="589.59" y="515.33" text-anchor="middle">1</text><text class="tick" x="556.59" y="562" text-anchor="middle">posição 5</text><rect x="616.50" y="535.00" width="26.00" height="0.00" fill="#31688e"/><rect x="649.50" y="480.33" width="26.00" height="54.67" fill="#7e4fa3"/><text class="tick" x="662.50" y="474.33" text-anchor="middle">4</text><rect x="682.50" y="521.33" width="26.00" height="13.67" fill="#24907b"/><text class="tick" x="695.50" y="515.33" text-anchor="middle">1</text><text class="tick" x="662.50" y="562" text-anchor="middle">posição 6</text><rect x="722.41" y="535.00" width="26.00" height="0.00" fill="#31688e"/><rect x="755.41" y="535.00" width="26.00" height="0.00" fill="#7e4fa3"/><rect x="788.41" y="521.33" width="26.00" height="13.67" fill="#24907b"/><text class="tick" x="801.41" y="515.33" text-anchor="middle">1</text><text class="tick" x="768.41" y="562" text-anchor="middle">posição 7</text><rect x="828.32" y="535.00" width="26.00" height="0.00" fill="#31688e"/><rect x="861.32" y="535.00" width="26.00" height="0.00" fill="#7e4fa3"/><rect x="894.32" y="507.67" width="26.00" height="27.33" fill="#24907b"/><text class="tick" x="907.32" y="501.67" text-anchor="middle">2</text><text class="tick" x="874.32" y="562" text-anchor="middle">posição 8</text><rect x="934.23" y="521.33" width="26.00" height="13.67" fill="#31688e"/><text class="tick" x="947.23" y="515.33" text-anchor="middle">1</text><rect x="967.23" y="535.00" width="26.00" height="0.00" fill="#7e4fa3"/><rect x="1000.23" y="521.33" width="26.00" height="13.67" fill="#24907b"/><text class="tick" x="1013.23" y="515.33" text-anchor="middle">1</text><text class="tick" x="980.23" y="562" text-anchor="middle">posição 9</text><rect x="1040.14" y="535.00" width="26.00" height="0.00" fill="#31688e"/><rect x="1073.14" y="535.00" width="26.00" height="0.00" fill="#7e4fa3"/><rect x="1106.14" y="521.33" width="26.00" height="13.67" fill="#24907b"/><text class="tick" x="1119.14" y="515.33" text-anchor="middle">1</text><text class="tick" x="1086.14" y="562" text-anchor="middle">posição 10</text><rect x="1146.05" y="412.00" width="26.00" height="123.00" fill="#31688e"/><text class="tick" x="1159.05" y="406.00" text-anchor="middle">9</text><rect x="1179.05" y="521.33" width="26.00" height="13.67" fill="#7e4fa3"/><text class="tick" x="1192.05" y="515.33" text-anchor="middle">1</text><rect x="1212.05" y="521.33" width="26.00" height="13.67" fill="#24907b"/><text class="tick" x="1225.05" y="515.33" text-anchor="middle">1</text><text class="tick" x="1192.05" y="562" text-anchor="middle">não encontrado</text></svg>