<svg xmlns="http://www.w3.org/2000/svg" width="960" height="430" viewBox="0 0 960 430"><rect width="100%" height="100%" fill="white"/><style>text{font-family:Arial,sans-serif;fill:#253247}.title{font-size:24px;font-weight:700}.subtitle{font-size:14px}.label{font-size:15px;font-weight:700}.tick{font-size:13px}.grid{stroke:#d7dee8;stroke-width:1}.axis{stroke:#253247;stroke-width:1.5}.ci{stroke:#1f2937;stroke-width:2}</style><text class="title" x="85" y="42">PDF-IR: MRR</text><text class="subtitle" x="85" y="65">Média por consulta e intervalo de confiança de 95% por bootstrap</text><line class="grid" x1="85" y1="305.00" x2="925" y2="305.00"/><text class="tick" x="73" y="309.00" text-anchor="end">0.0</text><line class="grid" x1="85" y1="261.60" x2="925" y2="261.60"/><text class="tick" x="73" y="265.60" text-anchor="end">0.2</text><line class="grid" x1="85" y1="218.20" x2="925" y2="218.20"/><text class="tick" x="73" y="222.20" text-anchor="end">0.4</text><line class="grid" x1="85" y1="174.80" x2="925" y2="174.80"/><text class="tick" x="73" y="178.80" text-anchor="end">0.6</text><line class="grid" x1="85" y1="131.40" x2="925" y2="131.40"/><text class="tick" x="73" y="135.40" text-anchor="end">0.8</text><line class="grid" x1="85" y1="88.00" x2="925" y2="88.00"/><text class="tick" x="73" y="92.00" text-anchor="end">1.0</text><line class="axis" x1="85" y1="88" x2="85" y2="305"/><line class="axis" x1="85" y1="305" x2="925" y2="305"/><rect x="170.00" y="148.96" width="110.00" height="156.04" fill="#31688e"/><line class="ci" x1="225.00" y1="128.51" x2="225.00" y2="168.61"/><line class="ci" x1="218.00" y1="128.51" x2="232.00" y2="128.51"/><line class="ci" x1="218.00" y1="168.61" x2="232.00" y2="168.61"/><text class="label" x="225.00" y="118.51" text-anchor="middle">0.719</text><text class="tick" x="225.00" y="335" text-anchor="middle"><tspan x="225.00" dy="0">Recursive Text</tspan><tspan x="225.00" dy="18">BM25</tspan></text><rect x="450.00" y="152.51" width="110.00" height="152.49" fill="#7e4fa3"/><line class="ci" x1="505.00" y1="130.44" x2="505.00" y2="175.44"/><line class="ci" x1="498.00" y1="130.44" x2="512.00" y2="130.44"/><line class="ci" x1="498.00" y1="175.44" x2="512.00" y2="175.44"/><text class="label" x="505.00" y="120.44" text-anchor="middle">0.703</text><text class="tick" x="505.00" y="335" text-anchor="middle"><tspan x="505.00" dy="0">Recursive Text</tspan><tspan x="505.00" dy="18">DENSE</tspan></text><rect x="730.00" y="128.15" width="110.00" height="176.85" fill="#24907b"/><line class="ci" x1="785.00" y1="110.06" x2="785.00" y2="147.68"/><line class="ci" x1="778.00" y1="110.06" x2="792.00" y2="110.06"/><line class="ci" x1="778.00" y1="147.68" x2="792.00" y2="147.68"/><text class="label" x="785.00" y="104.00" text-anchor="middle">0.815</text><text class="tick" x="785.00" y="335" text-anchor="middle"><tspan x="785.00" dy="0">Recursive Text</tspan><tspan x="785.00" dy="18">HYBRID</tspan></text></svg>