<svg xmlns="http://www.w3.org/2000/svg" width="1600" height="900" viewBox="0 0 1600 900"><rect width="100%" height="100%" fill="#FFFFFF"/><style>text{font-family:Arial,Helvetica,sans-serif;fill:#172033}.title{font-size:36px;font-weight:700}.subtitle{font-size:20px;fill:#526175}.caption{font-size:17px;fill:#526175}.tick{font-size:18px;fill:#42526A}.label{font-size:20px;font-weight:700}.value{font-size:19px;font-weight:700}.grid{stroke:#DCE3EC;stroke-width:1.5}.axis{stroke:#718096;stroke-width:1.5}.ci{stroke:#172033;stroke-width:2.5}</style><text class="title" x="100" y="72">Recuperação no corpus “Livro de RI” (581 páginas)</text><text class="subtitle" x="100" y="106">50 consultas • segmentação recursiva • top-10 • pontos: média; barras de erro: IC95% bootstrap</text><rect x="550" y="142" width="18" height="18" rx="3" fill="#356A9A"/><text class="tick" x="578" y="157">BM25</text><rect x="785" y="142" width="18" height="18" rx="3" fill="#8B5DA8"/><text class="tick" x="813" y="157">Denso</text><rect x="1020" y="142" width="18" height="18" rx="3" fill="#23846B"/><text class="tick" x="1048" y="157">Híbrido (RRF)</text><line class="grid" x1="125" y1="575.0" x2="1515" y2="575.0"/><text class="tick" x="109" y="581.0" text-anchor="end">0.0</text><line class="grid" x1="125" y1="502.0" x2="1515" y2="502.0"/><text class="tick" x="109" y="508.0" text-anchor="end">0.2</text><line class="grid" x1="125" y1="429.0" x2="1515" y2="429.0"/><text class="tick" x="109" y="435.0" text-anchor="end">0.4</text><line class="grid" x1="125" y1="356.0" x2="1515" y2="356.0"/><text class="tick" x="109" y="362.0" text-anchor="end">0.6</text><line class="grid" x1="125" y1="283.0" x2="1515" y2="283.0"/><text class="tick" x="109" y="289.0" text-anchor="end">0.8</text><line class="grid" x1="125" y1="210.0" x2="1515" y2="210.0"/><text class="tick" x="109" y="216.0" text-anchor="end">1.0</text><line class="axis" x1="125" y1="210" x2="125" y2="575"/><line class="axis" x1="125" y1="575" x2="1515" y2="575"/><text class="label" x="125.0" y="618" text-anchor="middle">MRR@10</text><text class="label" x="588.3" y="618" text-anchor="middle">MAP@10</text><text class="label" x="1051.7" y="618" text-anchor="middle">nDCG@10</text><text class="label" x="1515.0" y="618" text-anchor="middle">Recall@10</text><polyline points="125.0,364.7 588.3,378.1 1051.7,348.3 1515.0,279.3" fill="none" stroke="#356A9A" stroke-width="5" stroke-linejoin="round"/><line class="ci" x1="125.0" y1="322.7" x2="125.0" y2="404.1"/><line class="ci" x1="117.0" y1="322.7" x2="133.0" y2="322.7"/><line class="ci" x1="117.0" y1="404.1" x2="133.0" y2="404.1"/><circle cx="125.0" cy="364.7" r="9" fill="#356A9A" stroke="white" stroke-width="3"/><line class="ci" x1="588.3" y1="340.8" x2="588.3" y2="418.6"/><line class="ci" x1="580.3" y1="340.8" x2="596.3" y2="340.8"/><line class="ci" x1="580.3" y1="418.6" x2="596.3" y2="418.6"/><circle cx="588.3" cy="378.1" r="9" fill="#356A9A" stroke="white" stroke-width="3"/><line class="ci" x1="1051.7" y1="312.2" x2="1051.7" y2="385.8"/><line class="ci" x1="1043.7" y1="312.2" x2="1059.7" y2="312.2"/><line class="ci" x1="1043.7" y1="385.8" x2="1059.7" y2="385.8"/><circle cx="1051.7" cy="348.3" r="9" fill="#356A9A" stroke="white" stroke-width="3"/><line class="ci" x1="1515.0" y1="239.2" x2="1515.0" y2="323.1"/><line class="ci" x1="1507.0" y1="239.2" x2="1523.0" y2="239.2"/><line class="ci" x1="1507.0" y1="323.1" x2="1523.0" y2="323.1"/><circle cx="1515.0" cy="279.3" r="9" fill="#356A9A" stroke="white" stroke-width="3"/><polyline points="125.0,316.6 588.3,332.8 1051.7,303.0 1515.0,231.9" fill="none" stroke="#8B5DA8" stroke-width="5" stroke-linejoin="round"/><line class="ci" x1="125.0" y1="282.8" x2="125.0" y2="352.7"/><line class="ci" x1="117.0" y1="282.8" x2="133.0" y2="282.8"/><line class="ci" x1="117.0" y1="352.7" x2="133.0" y2="352.7"/><circle cx="125.0" cy="316.6" r="9" fill="#8B5DA8" stroke="white" stroke-width="3"/><line class="ci" x1="588.3" y1="296.7" x2="588.3" y2="368.9"/><line class="ci" x1="580.3" y1="296.7" x2="596.3" y2="296.7"/><line class="ci" x1="580.3" y1="368.9" x2="596.3" y2="368.9"/><circle cx="588.3" cy="332.8" r="9" fill="#8B5DA8" stroke="white" stroke-width="3"/><line class="ci" x1="1051.7" y1="274.5" x2="1051.7" y2="334.0"/><line class="ci" x1="1043.7" y1="274.5" x2="1059.7" y2="274.5"/><line class="ci" x1="1043.7" y1="334.0" x2="1059.7" y2="334.0"/><circle cx="1051.7" cy="303.0" r="9" fill="#8B5DA8" stroke="white" stroke-width="3"/><line class="ci" x1="1515.0" y1="213.6" x2="1515.0" y2="250.1"/><line class="ci" x1="1507.0" y1="213.6" x2="1523.0" y2="213.6"/><line class="ci" x1="1507.0" y1="250.1" x2="1523.0" y2="250.1"/><circle cx="1515.0" cy="231.9" r="9" fill="#8B5DA8" stroke="white" stroke-width="3"/><polyline points="125.0,316.1 588.3,329.8 1051.7,299.9 1515.0,224.6" fill="none" stroke="#23846B" stroke-width="5" stroke-linejoin="round"/><line class="ci" x1="125.0" y1="278.7" x2="125.0" y2="356.4"/><line class="ci" x1="117.0" y1="278.7" x2="133.0" y2="278.7"/><line class="ci" x1="117.0" y1="356.4" x2="133.0" y2="356.4"/><circle cx="125.0" cy="316.1" r="9" fill="#23846B" stroke="white" stroke-width="3"/><line class="ci" x1="588.3" y1="295.1" x2="588.3" y2="365.7"/><line class="ci" x1="580.3" y1="295.1" x2="596.3" y2="295.1"/><line class="ci" x1="580.3" y1="365.7" x2="596.3" y2="365.7"/><circle cx="588.3" cy="329.8" r="9" fill="#23846B" stroke="white" stroke-width="3"/><line class="ci" x1="1051.7" y1="271.7" x2="1051.7" y2="330.6"/><line class="ci" x1="1043.7" y1="271.7" x2="1059.7" y2="271.7"/><line class="ci" x1="1043.7" y1="330.6" x2="1059.7" y2="330.6"/><circle cx="1051.7" cy="299.9" r="9" fill="#23846B" stroke="white" stroke-width="3"/><line class="ci" x1="1515.0" y1="210.0" x2="1515.0" y2="242.8"/><line class="ci" x1="1507.0" y1="210.0" x2="1523.0" y2="210.0"/><line class="ci" x1="1507.0" y1="242.8" x2="1523.0" y2="242.8"/><circle cx="1515.0" cy="224.6" r="9" fill="#23846B" stroke="white" stroke-width="3"/><rect x="245" y="655" width="1270" height="154" rx="5" fill="white" stroke="#C7D0DC" stroke-width="1.5"/><rect x="245" y="655" width="1270" height="40" rx="5" fill="#EEF3F8"/><text class="label" x="261" y="682">Recuperador</text><text class="label" x="640.0" y="682" text-anchor="middle">MRR@10</text><text class="label" x="890.0" y="682" text-anchor="middle">MAP@10</text><line x1="765.0" y1="655" x2="765.0" y2="809" stroke="#D9E1EA" stroke-width="1"/><text class="label" x="1140.0" y="682" text-anchor="middle">nDCG@10</text><line x1="1015.0" y1="655" x2="1015.0" y2="809" stroke="#D9E1EA" stroke-width="1"/><text class="label" x="1390.0" y="682" text-anchor="middle">Recall@10</text><line x1="1265.0" y1="655" x2="1265.0" y2="809" stroke="#D9E1EA" stroke-width="1"/><line x1="515" y1="655" x2="515" y2="809" stroke="#C7D0DC" stroke-width="1.5"/><circle cx="265" cy="714.0" r="7" fill="#356A9A"/><text class="tick" x="281" y="720">BM25</text><text class="value" x="640.0" y="720" text-anchor="middle">0.576</text><text class="value" x="890.0" y="720" text-anchor="middle">0.540</text><text class="value" x="1140.0" y="720" text-anchor="middle">0.621</text><text class="value" x="1390.0" y="720" text-anchor="middle">0.810</text><rect x="246" y="733" width="1268" height="38" fill="#F8FAFC"/><line x1="245" y1="733" x2="1515" y2="733" stroke="#D9E1EA" stroke-width="1"/><circle cx="265" cy="752.0" r="7" fill="#8B5DA8"/><text class="tick" x="281" y="758">Denso</text><text class="value" x="640.0" y="758" text-anchor="middle">0.708</text><text class="value" x="890.0" y="758" text-anchor="middle">0.664</text><text class="value" x="1140.0" y="758" text-anchor="middle">0.745</text><text class="value" x="1390.0" y="758" text-anchor="middle">0.940</text><line x1="245" y1="771" x2="1515" y2="771" stroke="#D9E1EA" stroke-width="1"/><circle cx="265" cy="790.0" r="7" fill="#23846B"/><text class="tick" x="281" y="796">Híbrido (RRF)</text><text class="value" x="640.0" y="796" text-anchor="middle">0.709</text><text class="value" x="890.0" y="796" text-anchor="middle">0.672</text><text class="value" x="1140.0" y="796" text-anchor="middle">0.754</text><text class="value" x="1390.0" y="796" text-anchor="middle">0.960</text><text class="caption" x="100" y="855">Leitura: valores maiores são melhores. MRR, MAP e nDCG também refletem a posição da evidência relevante no ranking.</text></svg>
