<svg xmlns="http://www.w3.org/2000/svg" width="1600" height="900" viewBox="0 0 1600 900"><rect width="100%" height="100%" fill="#FFFFFF"/><style>text{font-family:Arial,Helvetica,sans-serif;fill:#172033}.title{font-size:36px;font-weight:700}.subtitle{font-size:20px;fill:#526175}.caption{font-size:17px;fill:#526175}.tick{font-size:18px;fill:#42526A}.label{font-size:20px;font-weight:700}.value{font-size:19px;font-weight:700}.grid{stroke:#DCE3EC;stroke-width:1.5}.axis{stroke:#718096;stroke-width:1.5}.ci{stroke:#172033;stroke-width:2.5}</style><text class="title" x="100" y="72">SciQ: evidência encontrada ao ampliar o top-k</text><text class="subtitle" x="100" y="106">878 consultas de teste • Recall@k (equivale a Hit@k neste conjunto) • barras de erro: IC95% bootstrap</text><rect x="550" y="142" width="18" height="18" rx="3" fill="#356A9A"/><text class="tick" x="578" y="157">BM25</text><rect x="785" y="142" width="18" height="18" rx="3" fill="#8B5DA8"/><text class="tick" x="813" y="157">Denso</text><rect x="1020" y="142" width="18" height="18" rx="3" fill="#23846B"/><text class="tick" x="1048" y="157">Híbrido (RRF)</text><line class="grid" x1="125" y1="575.0" x2="1515" y2="575.0"/><text class="tick" x="109" y="581.0" text-anchor="end">0.0</text><line class="grid" x1="125" y1="502.0" x2="1515" y2="502.0"/><text class="tick" x="109" y="508.0" text-anchor="end">0.2</text><line class="grid" x1="125" y1="429.0" x2="1515" y2="429.0"/><text class="tick" x="109" y="435.0" text-anchor="end">0.4</text><line class="grid" x1="125" y1="356.0" x2="1515" y2="356.0"/><text class="tick" x="109" y="362.0" text-anchor="end">0.6</text><line class="grid" x1="125" y1="283.0" x2="1515" y2="283.0"/><text class="tick" x="109" y="289.0" text-anchor="end">0.8</text><line class="grid" x1="125" y1="210.0" x2="1515" y2="210.0"/><text class="tick" x="109" y="216.0" text-anchor="end">1.0</text><line class="axis" x1="125" y1="210" x2="125" y2="575"/><line class="axis" x1="125" y1="575" x2="1515" y2="575"/><text class="label" x="125.0" y="618" text-anchor="middle">top-1</text><text class="label" x="588.3" y="618" text-anchor="middle">top-3</text><text class="label" x="1051.7" y="618" text-anchor="middle">top-5</text><text class="label" x="1515.0" y="618" text-anchor="middle">top-10</text><polyline points="125.0,330.1 588.3,257.4 1051.7,244.5 1515.0,227.5" fill="none" stroke="#356A9A" stroke-width="5" stroke-linejoin="round"/><line class="ci" x1="125.0" y1="319.3" x2="125.0" y2="341.4"/><line class="ci" x1="117.0" y1="319.3" x2="133.0" y2="319.3"/><line class="ci" x1="117.0" y1="341.4" x2="133.0" y2="341.4"/><circle cx="125.0" cy="330.1" r="9" fill="#356A9A" stroke="white" stroke-width="3"/><line class="ci" x1="588.3" y1="249.5" x2="588.3" y2="265.3"/><line class="ci" x1="580.3" y1="249.5" x2="596.3" y2="249.5"/><line class="ci" x1="580.3" y1="265.3" x2="596.3" y2="265.3"/><circle cx="588.3" cy="257.4" r="9" fill="#356A9A" stroke="white" stroke-width="3"/><line class="ci" x1="1051.7" y1="237.4" x2="1051.7" y2="252.0"/><line class="ci" x1="1043.7" y1="237.4" x2="1059.7" y2="237.4"/><line class="ci" x1="1043.7" y1="252.0" x2="1059.7" y2="252.0"/><circle cx="1051.7" cy="244.5" r="9" fill="#356A9A" stroke="white" stroke-width="3"/><line class="ci" x1="1515.0" y1="222.5" x2="1515.0" y2="232.4"/><line class="ci" x1="1507.0" y1="222.5" x2="1523.0" y2="222.5"/><line class="ci" x1="1507.0" y1="232.4" x2="1523.0" y2="232.4"/><circle cx="1515.0" cy="227.5" r="9" fill="#356A9A" stroke="white" stroke-width="3"/><polyline points="125.0,353.0 588.3,278.6 1051.7,255.3 1515.0,238.3" fill="none" stroke="#8B5DA8" stroke-width="5" stroke-linejoin="round"/><line class="ci" x1="125.0" y1="341.4" x2="125.0" y2="364.2"/><line class="ci" x1="117.0" y1="341.4" x2="133.0" y2="341.4"/><line class="ci" x1="117.0" y1="364.2" x2="133.0" y2="364.2"/><circle cx="125.0" cy="353.0" r="9" fill="#8B5DA8" stroke="white" stroke-width="3"/><line class="ci" x1="588.3" y1="269.4" x2="588.3" y2="287.7"/><line class="ci" x1="580.3" y1="269.4" x2="596.3" y2="269.4"/><line class="ci" x1="580.3" y1="287.7" x2="596.3" y2="287.7"/><circle cx="588.3" cy="278.6" r="9" fill="#8B5DA8" stroke="white" stroke-width="3"/><line class="ci" x1="1051.7" y1="247.0" x2="1051.7" y2="263.6"/><line class="ci" x1="1043.7" y1="247.0" x2="1059.7" y2="247.0"/><line class="ci" x1="1043.7" y1="263.6" x2="1059.7" y2="263.6"/><circle cx="1051.7" cy="255.3" r="9" fill="#8B5DA8" stroke="white" stroke-width="3"/><line class="ci" x1="1515.0" y1="231.6" x2="1515.0" y2="244.9"/><line class="ci" x1="1507.0" y1="231.6" x2="1523.0" y2="231.6"/><line class="ci" x1="1507.0" y1="244.9" x2="1523.0" y2="244.9"/><circle cx="1515.0" cy="238.3" r="9" fill="#8B5DA8" stroke="white" stroke-width="3"/><polyline points="125.0,321.4 588.3,253.2 1051.7,235.4 1515.0,221.6" fill="none" stroke="#23846B" stroke-width="5" stroke-linejoin="round"/><line class="ci" x1="125.0" y1="310.6" x2="125.0" y2="332.2"/><line class="ci" x1="117.0" y1="310.6" x2="133.0" y2="310.6"/><line class="ci" x1="117.0" y1="332.2" x2="133.0" y2="332.2"/><circle cx="125.0" cy="321.4" r="9" fill="#23846B" stroke="white" stroke-width="3"/><line class="ci" x1="588.3" y1="245.3" x2="588.3" y2="261.1"/><line class="ci" x1="580.3" y1="245.3" x2="596.3" y2="245.3"/><line class="ci" x1="580.3" y1="261.1" x2="596.3" y2="261.1"/><circle cx="588.3" cy="253.2" r="9" fill="#23846B" stroke="white" stroke-width="3"/><line class="ci" x1="1051.7" y1="229.1" x2="1051.7" y2="241.6"/><line class="ci" x1="1043.7" y1="229.1" x2="1059.7" y2="229.1"/><line class="ci" x1="1043.7" y1="241.6" x2="1059.7" y2="241.6"/><circle cx="1051.7" cy="235.4" r="9" fill="#23846B" stroke="white" stroke-width="3"/><line class="ci" x1="1515.0" y1="217.9" x2="1515.0" y2="225.8"/><line class="ci" x1="1507.0" y1="217.9" x2="1523.0" y2="217.9"/><line class="ci" x1="1507.0" y1="225.8" x2="1523.0" y2="225.8"/><circle cx="1515.0" cy="221.6" r="9" fill="#23846B" stroke="white" stroke-width="3"/><rect x="245" y="655" width="1270" height="154" rx="5" fill="white" stroke="#C7D0DC" stroke-width="1.5"/><rect x="245" y="655" width="1270" height="40" rx="5" fill="#EEF3F8"/><text class="label" x="261" y="682">Recuperador</text><text class="label" x="640.0" y="682" text-anchor="middle">Recall@1</text><text class="label" x="890.0" y="682" text-anchor="middle">Recall@3</text><line x1="765.0" y1="655" x2="765.0" y2="809" stroke="#D9E1EA" stroke-width="1"/><text class="label" x="1140.0" y="682" text-anchor="middle">Recall@5</text><line x1="1015.0" y1="655" x2="1015.0" y2="809" stroke="#D9E1EA" stroke-width="1"/><text class="label" x="1390.0" y="682" text-anchor="middle">Recall@10</text><line x1="1265.0" y1="655" x2="1265.0" y2="809" stroke="#D9E1EA" stroke-width="1"/><line x1="515" y1="655" x2="515" y2="809" stroke="#C7D0DC" stroke-width="1.5"/><circle cx="265" cy="714.0" r="7" fill="#356A9A"/><text class="tick" x="281" y="720">BM25</text><text class="value" x="640.0" y="720" text-anchor="middle">0.671</text><text class="value" x="890.0" y="720" text-anchor="middle">0.870</text><text class="value" x="1140.0" y="720" text-anchor="middle">0.905</text><text class="value" x="1390.0" y="720" text-anchor="middle">0.952</text><rect x="246" y="733" width="1268" height="38" fill="#F8FAFC"/><line x1="245" y1="733" x2="1515" y2="733" stroke="#D9E1EA" stroke-width="1"/><circle cx="265" cy="752.0" r="7" fill="#8B5DA8"/><text class="tick" x="281" y="758">Denso</text><text class="value" x="640.0" y="758" text-anchor="middle">0.608</text><text class="value" x="890.0" y="758" text-anchor="middle">0.812</text><text class="value" x="1140.0" y="758" text-anchor="middle">0.876</text><text class="value" x="1390.0" y="758" text-anchor="middle">0.923</text><line x1="245" y1="771" x2="1515" y2="771" stroke="#D9E1EA" stroke-width="1"/><circle cx="265" cy="790.0" r="7" fill="#23846B"/><text class="tick" x="281" y="796">Híbrido (RRF)</text><text class="value" x="640.0" y="796" text-anchor="middle">0.695</text><text class="value" x="890.0" y="796" text-anchor="middle">0.882</text><text class="value" x="1140.0" y="796" text-anchor="middle">0.931</text><text class="value" x="1390.0" y="796" text-anchor="middle">0.968</text><text class="caption" x="100" y="855">O ganho do top-1 para o top-10 mostra a parcela de consultas que exige mais de um trecho recuperado para conter a evidência.</text></svg>
