<svg xmlns="http://www.w3.org/2000/svg" width="1600" height="900" viewBox="0 0 1600 900"><rect width="100%" height="100%" fill="#FFFFFF"/><style>text{font-family:Arial,Helvetica,sans-serif;fill:#172033}.title{font-size:36px;font-weight:700}.subtitle{font-size:20px;fill:#526175}.caption{font-size:17px;fill:#526175}.tick{font-size:18px;fill:#42526A}.label{font-size:20px;font-weight:700}.value{font-size:19px;font-weight:700}.grid{stroke:#DCE3EC;stroke-width:1.5}.axis{stroke:#718096;stroke-width:1.5}.ci{stroke:#172033;stroke-width:2.5}</style><text class="title" x="100" y="72">Livro de RI: posição da primeira evidência relevante</text><text class="subtitle" x="100" y="106">50 consultas • segmentação recursiva • top-10 • a última posição reúne consultas sem evidência relevante recuperada</text><rect x="550" y="142" width="18" height="18" rx="3" fill="#356A9A"/><text class="tick" x="578" y="157">BM25</text><rect x="785" y="142" width="18" height="18" rx="3" fill="#8B5DA8"/><text class="tick" x="813" y="157">Denso</text><rect x="1020" y="142" width="18" height="18" rx="3" fill="#23846B"/><text class="tick" x="1048" y="157">Híbrido (RRF)</text><line class="grid" x1="110" y1="690.0" x2="1515" y2="690.0"/><text class="tick" x="94" y="696.0" text-anchor="end">0</text><line class="grid" x1="110" y1="594.0" x2="1515" y2="594.0"/><text class="tick" x="94" y="600.0" text-anchor="end">6</text><line class="grid" x1="110" y1="498.0" x2="1515" y2="498.0"/><text class="tick" x="94" y="504.0" text-anchor="end">12</text><line class="grid" x1="110" y1="402.0" x2="1515" y2="402.0"/><text class="tick" x="94" y="408.0" text-anchor="end">18</text><line class="grid" x1="110" y1="306.0" x2="1515" y2="306.0"/><text class="tick" x="94" y="312.0" text-anchor="end">24</text><line class="grid" x1="110" y1="210.0" x2="1515" y2="210.0"/><text class="tick" x="94" y="216.0" text-anchor="end">30</text><line class="axis" x1="110" y1="210" x2="110" y2="690"/><line class="axis" x1="110" y1="690" x2="1515" y2="690"/><text class="tick" x="110.0" y="722" text-anchor="middle">1</text><text class="tick" x="250.5" y="722" text-anchor="middle">2</text><text class="tick" x="391.0" y="722" text-anchor="middle">3</text><text class="tick" x="531.5" y="722" text-anchor="middle">4</text><text class="tick" x="672.0" y="722" text-anchor="middle">5</text><text class="tick" x="812.5" y="722" text-anchor="middle">6</text><text class="tick" x="953.0" y="722" text-anchor="middle">7</text><text class="tick" x="1093.5" y="722" text-anchor="middle">8</text><text class="tick" x="1234.0" y="722" text-anchor="middle">9</text><text class="tick" x="1374.5" y="722" text-anchor="middle">10</text><text class="tick" x="1515.0" y="722" text-anchor="middle"><tspan x="1515.0" dy="0">não</tspan><tspan x="1515.0" dy="18">encontrada</tspan></text><polyline points="110.0,338.0 250.5,594.0 391.0,546.0 531.5,658.0 672.0,674.0 812.5,690.0 953.0,690.0 1093.5,690.0 1234.0,674.0 1374.5,690.0 1515.0,546.0" fill="none" stroke="#356A9A" stroke-width="4" stroke-linejoin="round"/><circle cx="110.0" cy="338.0" r="6" fill="#356A9A" stroke="white" stroke-width="2"/><circle cx="250.5" cy="594.0" r="6" fill="#356A9A" stroke="white" stroke-width="2"/><circle cx="391.0" cy="546.0" r="6" fill="#356A9A" stroke="white" stroke-width="2"/><circle cx="531.5" cy="658.0" r="6" fill="#356A9A" stroke="white" stroke-width="2"/><circle cx="672.0" cy="674.0" r="6" fill="#356A9A" stroke="white" stroke-width="2"/><circle cx="812.5" cy="690.0" r="6" fill="#356A9A" stroke="white" stroke-width="2"/><circle cx="953.0" cy="690.0" r="6" fill="#356A9A" stroke="white" stroke-width="2"/><circle cx="1093.5" cy="690.0" r="6" fill="#356A9A" stroke="white" stroke-width="2"/><circle cx="1234.0" cy="674.0" r="6" fill="#356A9A" stroke="white" stroke-width="2"/><circle cx="1374.5" cy="690.0" r="6" fill="#356A9A" stroke="white" stroke-width="2"/><circle cx="1515.0" cy="546.0" r="6" fill="#356A9A" stroke="white" stroke-width="2"/><polyline points="110.0,226.0 250.5,594.0 391.0,626.0 531.5,626.0 672.0,658.0 812.5,626.0 953.0,690.0 1093.5,690.0 1234.0,690.0 1374.5,690.0 1515.0,674.0" fill="none" stroke="#8B5DA8" stroke-width="4" stroke-linejoin="round"/><circle cx="110.0" cy="226.0" r="6" fill="#8B5DA8" stroke="white" stroke-width="2"/><circle cx="250.5" cy="594.0" r="6" fill="#8B5DA8" stroke="white" stroke-width="2"/><circle cx="391.0" cy="626.0" r="6" fill="#8B5DA8" stroke="white" stroke-width="2"/><circle cx="531.5" cy="626.0" r="6" fill="#8B5DA8" stroke="white" stroke-width="2"/><circle cx="672.0" cy="658.0" r="6" fill="#8B5DA8" stroke="white" stroke-width="2"/><circle cx="812.5" cy="626.0" r="6" fill="#8B5DA8" stroke="white" stroke-width="2"/><circle cx="953.0" cy="690.0" r="6" fill="#8B5DA8" stroke="white" stroke-width="2"/><circle cx="1093.5" cy="690.0" r="6" fill="#8B5DA8" stroke="white" stroke-width="2"/><circle cx="1234.0" cy="690.0" r="6" fill="#8B5DA8" stroke="white" stroke-width="2"/><circle cx="1374.5" cy="690.0" r="6" fill="#8B5DA8" stroke="white" stroke-width="2"/><circle cx="1515.0" cy="674.0" r="6" fill="#8B5DA8" stroke="white" stroke-width="2"/><polyline points="110.0,210.0 250.5,626.0 391.0,594.0 531.5,658.0 672.0,674.0 812.5,674.0 953.0,674.0 1093.5,658.0 1234.0,674.0 1374.5,674.0 1515.0,674.0" fill="none" stroke="#23846B" stroke-width="4" stroke-linejoin="round"/><circle cx="110.0" cy="210.0" r="6" fill="#23846B" stroke="white" stroke-width="2"/><circle cx="250.5" cy="626.0" r="6" fill="#23846B" stroke="white" stroke-width="2"/><circle cx="391.0" cy="594.0" r="6" fill="#23846B" stroke="white" stroke-width="2"/><circle cx="531.5" cy="658.0" r="6" fill="#23846B" stroke="white" stroke-width="2"/><circle cx="672.0" cy="674.0" r="6" fill="#23846B" stroke="white" stroke-width="2"/><circle cx="812.5" cy="674.0" r="6" fill="#23846B" stroke="white" stroke-width="2"/><circle cx="953.0" cy="674.0" r="6" fill="#23846B" stroke="white" stroke-width="2"/><circle cx="1093.5" cy="658.0" r="6" fill="#23846B" stroke="white" stroke-width="2"/><circle cx="1234.0" cy="674.0" r="6" fill="#23846B" stroke="white" stroke-width="2"/><circle cx="1374.5" cy="674.0" r="6" fill="#23846B" stroke="white" stroke-width="2"/><circle cx="1515.0" cy="674.0" r="6" fill="#23846B" stroke="white" stroke-width="2"/><text class="label" x="110" y="188">Quantidade de consultas</text><text class="caption" x="100" y="845">Quanto mais à esquerda estiver a evidência, menor é a quantidade de contexto necessária para a resposta do tutor.</text></svg>
